# AST/ASF file generated using VICON BodyLanguage
# -----------------------------------------------
:version 1.10
:name VICON
:units
  mass 1.0
  length 0.45
  angle deg
:documentation
   .ast/.asf automatically generated from VICON data using
   VICON BodyBuilder and BodyLanguage model FoxedUp or BRILLIANT.MOD
:root
   order TX TY TZ RX RY RZ
   axis XYZ
   position 0 0 0  
   orientation 0 0 0 
:bonedata
  begin
     id 1 
     name lhipjoint
     direction 0.596438 -0.722117 0.35044 
     length 2.43043 
     axis 0 0 0  XYZ
  end
  begin
     id 2 
     name lfemur
     direction 0.34202 -0.939693 0  
     length 7.0339  
     axis 0 0 20  XYZ
    dof rx ry rz
    limits (-160.0 20.0)
           (-70.0 70.0)
           (-60.0 70.0)
  end
  begin
     id 3 
     name ltibia
     direction 0.34202 -0.939693 0   
     length 7.56602   
     axis 0 0 20   XYZ
    dof rx
    limits (-10.0 170.0)
  end
  begin
     id 4 
     name lfoot
     direction 0.0985677 -0.270812 0.957572   
     length 1.85172   
     axis -90 7.62852e-016 20   XYZ
    dof rx rz
    limits (-45.0 90.0)
           (-70.0 20.0)
  end
  begin
     id 5 
     name ltoes
     direction 1.53534e-011 -4.21843e-011 1   
     length 0.929904   
     axis -90 7.62852e-016 20   XYZ
    dof rx
    limits (-90.0 20.0)
  end
  begin
     id 6 
     name rhipjoint
     direction -0.585088 -0.729594 0.354068   
     length 2.40552  
     axis 0 0 0  XYZ 
  end
  begin
     id 7 
     name rfemur
     direction -0.34202 -0.939693 0   
     length 7.12573   
     axis 0 0 -20   XYZ
    dof rx ry rz
    limits (-160.0 20.0)
           (-70.0 70.0)
           (-70.0 60.0)
  end
  begin
     id 8 
     name rtibia
     direction -0.34202 -0.939693 0   
     length 7.35777   
     axis 0 0 -20   XYZ
    dof rx
    limits (-10.0 170.0)
 end
 begin
     id 9 
     name rfoot
     direction -0.120907 -0.33219 0.935431   
     length 2.0994  
     axis -90 -7.62852e-016 -20   XYZ
    dof rx rz
    limits (-45.0 90.0)
           (-20.0 70.0)
  end
  begin
     id 10 
     name rtoes
     direction -1.53577e-011 -4.21787e-011 1   
     length 1.04244   
     axis -90 -7.62852e-016 -20   XYZ
    dof rx
    limits (-90.0 20.0)
  end
  begin
     id 11 
     name lowerback
     direction 0.00268363 0.993603 -0.112896   
     length 2.15839   
     axis 0 0 0   XYZ
    dof rx ry rz
    limits (-20.0 45.0)
           (-30.0 30.0)
           (-30.0 30.0)
  end
  begin
     id 12 
     name upperback
     direction 0.0272563 0.999411 -0.0208618   
     length 2.16443   
     axis 0 0 0   XYZ
    dof rx ry rz
    limits (-20.0 45.0)
           (-30.0 30.0)
           (-30.0 30.0)
  end
  begin
     id 13 
     name thorax
     direction 0.0254655 0.999174 0.0316806   
     length 2.19003   
     axis 0 0 0   XYZ
    dof rx ry rz
    limits (-20.0 45.0)
           (-30.0 30.0)
           (-30.0 30.0)
  end
  begin
     id 14 
     name lowerneck
     direction -0.0102178 0.988048 0.15381   
     length 1.61507   
     axis 0 0 0   XYZ
    dof rx ry rz
    limits (-20.0 45.0)
           (-30.0 30.0)
           (-30.0 30.0)
  end
  begin
     id 15 
     name upperneck
     direction -0.0061965 0.994088 -0.108398   
     length 1.64042   
     axis 0 0 0   XYZ
    dof rx ry rz
    limits (-20.0 45.0)
           (-30.0 30.0)
           (-30.0 30.0)
  end
  begin
     id 16
     name head
     direction -0.00151929 0.998591 -0.0530385  
     length 1.64343  
     axis 0 0 0   XYZ
    dof rx ry rz
    limits (-20.0 45.0)
           (-30.0 30.0)
           (-30.0 30.0)
  end
  begin
     id 17 
     name lclavicle
     direction 0.948974 0.284245 -0.136574  
     length 3.3483  
     axis 0 0 0   XYZ
    dof ry rz
    limits (-20.0 10.0)
           (0.0 20.0)
  end
  begin
     id 18 
     name lhumerus
     direction 1 -4.48961e-011 1.68576e-027   
     length 4.93485   
     axis -180 -30 -90   XYZ
    dof rx ry rz
    limits (-60.0 90.0)
           (-90.0 90.0)
           (-90.0 90.0)
  end
  begin
     id 19
     name lradius
     direction 1 -4.48965e-011 -2.46405e-027   
     length 3.41719   
     axis -180 -30 -90   XYZ
    dof rx
    limits (-10.0 170.0)
  end
  begin
     id 20
     name lwrist
     direction 1 -4.48968e-011 -8.00486e-028   
     length 1.7086   
     axis 3.27501e-015 90 90   XYZ
    dof ry
    limits (-180.0 0.0)
 end
  begin
     id 21 
     name lhand
     direction 1 -4.48977e-011 -1.60161e-027   
     length 0.6241   
     axis 1.02148e-015 90 90   XYZ
    dof rx rz
    limits (-90.0 90.0)
           (-45.0 45.0)
  end
  begin
     id 22 
     name lfingers
     direction 1 -4.49049e-011 -3.21275e-027   
     length 0.503166   
     axis 2.04295e-015 90 90   XYZ
    dof rx
    limits (0.0 90.0)
  end
  begin
     id 23
     name lthumb
     direction 0.707107 -6.34975e-011 0.707107   
     length 0.722448   
     axis -90 45 -1.62303e-014   XYZ
    dof rx rz
    limits (-45.0 45.0)
           (-45.0 45.0)
  end
  begin
     id 24 
     name rclavicle
     direction -0.904485 0.355099 -0.236246   
     length 3.18329  
     axis 0 0 0   XYZ 
    dof ry rz
    limits (-10.0 20.0)
           (-20.0 0.0)
  end
  begin
     id 25 
     name rhumerus
     direction -1 -4.48953e-011 1.32816e-027  
     length 5.22034   
     axis -180 30 90   XYZ
    dof rx ry rz
    limits (-90.0 60.0)
           (-90.0 90.0)
           (-90.0 90.0)
  end
  begin
     id 26 
     name rradius
     direction -1 -4.48965e-011 -3.93727e-027   
     length 3.41809   
     axis -180 30 90   XYZ
    dof rx
    limits (-10.0 170.0)
  end
  begin
     id 27 
     name rwrist
     direction -1 -4.48962e-011 -8.003e-028   
     length 1.70904   
     axis 3.27501e-015 -90 -90   XYZ
    dof ry
    limits (-180.0 0.0)
  end
  begin
     id 28
     name rhand
     direction -1 -4.49008e-011 -1.60365e-027   
     length 0.77534   
     axis 1.02148e-015 -90 -90   XYZ
    dof rx rz
    limits (-90.0 90.0)
           (-45.0 45.0)
  end
  begin
     id 29
     name rfingers
     direction -1 -4.49001e-011 -3.2064e-027   
     length 0.625099   
     axis 2.04295e-015 -90 -90   XYZ
    dof rx
    limits (0.0 90.0)
  end
  begin
     id 30
     name rthumb
     direction -0.707107 -6.34989e-011 0.707107   
     length 0.897521   
     axis -90 -45 1.62303e-014   XYZ
    dof rx rz
    limits (-45.0 45.0)
           (-45.0 45.0)
  end
:hierarchy
  begin
    root lhipjoint rhipjoint lowerback
    lhipjoint lfemur
    lfemur ltibia
    ltibia lfoot
    lfoot ltoes
    rhipjoint rfemur
    rfemur rtibia
    rtibia rfoot
    rfoot rtoes
    lowerback upperback
    upperback thorax
    thorax lowerneck lclavicle rclavicle
    lowerneck upperneck
    upperneck head
    lclavicle lhumerus
    lhumerus lradius
    lradius lwrist
    lwrist lhand lthumb
    lhand lfingers
    rclavicle rhumerus
    rhumerus rradius
    rradius rwrist
    rwrist rhand rthumb
    rhand rfingers
  end

#!OML:ASF \\sashay\E\Suitcase\Project 1\Capture day 1\Session 1\Male1.ASF
:FULLY-SPECIFIED
:DEGREES
340
root 0.651451 17.576 -36.3946 8.36261 3.45699 0.296143
lowerback 12.611 0.0498709 5.21344
upperback 6.84439 0.795853 10.8445
thorax 0.098543 0.340909 8.52857
lowerneck -16.623 -2.4348 -6.4119
upperneck -2.03342 -1.74611 -9.07391
head 2.19495 -1.1982 -1.98938
rclavicle 9.54166e-015 4.13472e-014
rhumerus -19.8843 -12.5132 -60.7111
rradius 24.1428
rwrist -11.5745
rhand -9.26563 16.2667
rfingers 7.12502
rthumb 16.6907 -13.0357
lclavicle 9.54166e-015 4.13472e-014
lhumerus -37.3426 -8.81506 96.0524
lradius 49.0452
lwrist -0.123407
lhand -0.343706 42.2552
lfingers 7.12502
lthumb 25.2611 70.6028
rfemur -18.9148 -0.357846 21.7439
rtibia 30.1225
rfoot -19.4301 -10.978
rtoes 6.26586
lfemur -17.8753 -1.49005 -18.5176
ltibia 27.7018
lfoot -18.6152 2.66463
ltoes -5.08667
341
root 0.640757 17.5771 -36.3671 8.32031 3.36966 0.314412
lowerback 12.4692 0.00608805 5.09837
upperback 6.76989 0.71305 10.6493
thorax 0.102907 0.300517 8.38324
lowerneck -16.8933 -2.34698 -6.32995
upperneck -1.49029 -1.55941 -9.10557
head 2.43689 -1.14173 -2.0177
rclavicle -1.11319e-014 2.8625e-014
rhumerus -20.406 -12.673 -60.9262
rradius 24.3928
rwrist -11.4206
rhand -8.99334 16.4013
rfingers 7.12502
rthumb 16.9528 -12.8788
lclavicle -1.11319e-014 2.8625e-014
lhumerus -37.2845 -8.67607 95.8037
lradius 48.7578
lwrist -0.205339
lhand 0.00307243 43.0043
lfingers 7.12502
lthumb 25.5933 71.3046
rfemur -18.7286 -0.279933 21.7548
rtibia 30.0227
rfoot -19.4821 -10.9362
rtoes 6.20439
lfemur -17.742 -1.44054 -18.5272
ltibia 27.745
lfoot -18.6521 2.83835
ltoes -5.72016
342
root 0.627978 17.5779 -36.3471 8.44574 3.42387 0.362826
lowerback 12.0902 0.0166082 4.88594
upperback 6.62769 0.675417 10.5194
thorax 0.157304 0.280495 8.35966
lowerneck -16.8544 -2.32386 -6.22622
upperneck -1.08364 -1.50723 -9.19966
head 2.57322 -1.13953 -2.07166
rclavicle 4.29375e-014 7.63333e-014
rhumerus -20.9945 -12.575 -61.0394
rradius 24.5383
rwrist -11.6224
rhand -9.01239 16.5931
rfingers 7.12502
rthumb 16.9345 -12.6886
lclavicle 4.29375e-014 7.63333e-014
lhumerus -37.0878 -8.94044 95.726
lradius 48.2674
lwrist -0.0642367
lhand -0.0389005 42.2754
lfingers 7.12502
lthumb 25.5531 70.5815
rfemur -18.766 -0.272076 21.7525
rtibia 29.9757
rfoot -19.5415 -10.9764
rtoes 6.08296
lfemur -17.8393 -1.49913 -18.5414
ltibia 27.7699
lfoot -18.6069 2.92471
ltoes -6.06048
343
root 0.621808 17.5765 -36.3251 8.43582 3.53 0.231546
lowerback 11.9925 -0.14488 5.12118
upperback 6.4502 0.491734 10.3424
thorax 0.0433716 0.198809 8.04461
lowerneck -17.0123 -2.23233 -6.31715
upperneck -0.508596 -1.29497 -9.12057
head 2.80972 -1.06468 -2.02794
rclavicle -4.45278e-014 -8.26944e-014
rhumerus -21.3806 -12.1655 -61.3856
rradius 24.7579
rwrist -12.0004
rhand -8.87391 16.4829
rfingers 7.12502
rthumb 17.0678 -12.7874
lclavicle -4.45278e-014 -8.26944e-014
lhumerus -37.3644 -8.64718 95.447
lradius 48.5773
lwrist -0.288187
lhand 0.232694 43.461
lfingers 7.12502
lthumb 25.8132 71.7296
rfemur -18.6406 -0.297586 21.9354
rtibia 29.9273
rfoot -19.6164 -11.046
rtoes 5.98659
lfemur -17.7924 -1.5243 -18.3739
ltibia 27.8018
lfoot -18.6035 2.90732
ltoes -6.04995
344
root 0.611766 17.5737 -36.3045 8.41639 3.70076 0.291024
lowerback 11.8377 -0.253575 5.05491
upperback 6.25011 0.34414 10.1703
thorax -0.0721247 0.128411 7.90503
lowerneck -16.8961 -2.16912 -6.30683
upperneck -0.00936012 -1.17276 -9.13886
head 2.96746 -1.02763 -2.03466
rclavicle -4.13472e-014 -8.90555e-014
rhumerus -21.7309 -12.1779 -61.587
rradius 24.4425
rwrist -11.8029
rhand -9.02819 16.5628
rfingers 7.12502
rthumb 16.9193 -12.7202
lclavicle -4.13472e-014 -8.90555e-014
lhumerus -37.5492 -8.7724 95.3122
lradius 48.4802
lwrist -0.201633
lhand -0.397502 42.7117
lfingers 7.12502
lthumb 25.2096 71.0666
rfemur -18.5282 -0.506835 21.9412
rtibia 29.9202
rfoot -19.6665 -11.0589
rtoes 5.90203
lfemur -17.7248 -1.64594 -18.3871
ltibia 27.8315
lfoot -18.6124 2.85971
ltoes -5.7894
345
root 0.59904 17.5724 -36.2759 8.40717 3.46424 0.23014
lowerback 11.5623 -0.188894 4.93434
upperback 6.22269 0.384647 10.0257
thorax 0.0424975 0.148123 7.80418
lowerneck -17.1307 -2.12874 -6.27237
upperneck 0.556116 -1.04099 -9.17561
head 3.21647 -0.999009 -2.06058
rclavicle -2.38542e-014 -1.30403e-013
rhumerus -22.0548 -12.3611 -61.8068
rradius 24.5699
rwrist -11.8562
rhand -8.82374 16.7452
rfingers 7.12502
rthumb 17.1161 -12.5209
lclavicle -2.38542e-014 -1.30403e-013
lhumerus -37.1936 -8.61044 95.1178
lradius 47.8401
lwrist -0.57498
lhand -0.191554 42.6426
lfingers 7.12502
lthumb 25.4069 70.9696
rfemur -18.4157 -0.305436 22.0483
rtibia 29.8744
rfoot -19.6715 -11.088
rtoes 5.82454
lfemur -17.5872 -1.40513 -18.2966
ltibia 27.8737
lfoot -18.7173 2.8557
ltoes -5.32666
346
root 0.590295 17.5717 -36.2535 8.46402 3.6466 0.373151
lowerback 11.5534 -0.501283 5.0287
upperback 5.82447 0.0187953 9.69498
thorax -0.342175 -0.0249128 7.42444
lowerneck -16.894 -1.93648 -6.44222
upperneck 1.17191 -0.724768 -8.96376
head 3.39751 -0.859669 -1.9395
rclavicle -9.54166e-015 2.54444e-014
rhumerus -22.5229 -12.4825 -62.1435
rradius 24.0373
rwrist -11.0306
rhand -8.43075 17.5568
rfingers 7.12502
rthumb 17.4943 -11.676
lclavicle -9.54166e-015 2.54444e-014
lhumerus -37.7657 -8.29433 94.7416
lradius 47.9631
lwrist -0.567296
lhand 0.270399 43.4431
lfingers 7.12502
lthumb 25.8493 71.7064
rfemur -18.3639 -0.489821 21.9496
rtibia 29.8552
rfoot -19.7301 -11.1315
rtoes 5.8365
lfemur -17.5635 -1.76208 -18.397
ltibia 27.8862
lfoot -18.7347 2.99135
ltoes -4.80416
347
root 0.579817 17.5709 -36.2241 8.43854 3.54926 0.29999
lowerback 11.3528 -0.599871 5.09106
upperback 5.68719 -0.118084 9.49904
thorax -0.368016 -0.0889435 7.18427
lowerneck -17.0743 -1.87596 -6.75262
upperneck 2.12688 -0.494153 -8.84594
head 3.38069 -0.803947 -1.70315
rclavicle -1.59028e-015 2.22639e-014
rhumerus -22.9279 -11.786 -62.6136
rradius 24.1164
rwrist -11.2191
rhand -9.11809 16.9209
rfingers 7.12502
rthumb 16.8328 -12.3695
lclavicle -1.59028e-015 2.22639e-014
lhumerus -37.901 -8.11882 94.5052
lradius 47.8121
lwrist -1.04119
lhand 0.13952 42.7459
lfingers 7.12502
lthumb 25.724 71.0274
rfemur -18.1874 -0.347753 22.0827
rtibia 29.7661
rfoot -19.7862 -11.1848
rtoes 5.92682
lfemur -17.416 -1.68442 -18.2737
ltibia 27.9019
lfoot -18.8464 3.00102
ltoes -4.24681
348
root 0.566907 17.57 -36.2001 8.49707 3.6127 0.318754
lowerback 11.0589 -0.63988 4.92195
upperback 5.54851 -0.207505 9.38867
thorax -0.348019 -0.134336 7.16422
lowerneck -17.1576 -1.83552 -6.71233
upperneck 2.72477 -0.373128 -8.94458
head 3.58253 -0.783619 -1.73716
rclavicle 0 -1.24042e-013
rhumerus -23.3161 -11.6736 -62.8261
rradius 24.1428
rwrist -11.4667
rhand -9.03583 17.1457
rfingers 7.12502
rthumb 16.9119 -12.138
lclavicle 0 -1.24042e-013
lhumerus -37.9225 -8.16636 94.3929
lradius 47.7614
lwrist -1.15784
lhand 0.332007 42.8651
lfingers 7.12502
lthumb 25.9083 71.1198
rfemur -18.0972 -0.312685 22.1266
rtibia 29.6678
rfoot -19.8595 -11.2693
rtoes 6.15238
lfemur -17.4127 -1.64043 -18.2379
ltibia 27.9273
lfoot -18.9287 2.87429
ltoes -3.7588
